# xmcd CD database file
#
# Track frame offsets:
#	150
#	22158
#	48421
#	67488
#	83279
#	109583
#	127095
#	150113
#	175013
#	193156
#
# Disc length: 2941 seconds
#
# Revision: 0
# Processed by: cddbd v1.5.1PL0 Copyright (c) Steve Scherf et al.
# Submitted via: CDex 1.51
#
DISCID=7f0b7b0a
DTITLE=Shabby Blues Band - Jó idõk rossz idõk
DYEAR=1900
DGENRE=Blues
TTITLE0=Út az Angyalok városába
TTITLE1=Jó idõk - rossz idõk
TTITLE2=Hova állsz?
TTITLE3=Ultimátum
TTITLE4=Nem talállak
TTITLE5=Szeretõ szerelem
TTITLE6=Engedj fel ...
TTITLE7=Kísértés
TTITLE8=Koponyák hegyén
TTITLE9=Maradsz aki vagy
EXTD=
EXTT0=
EXTT1=
EXTT2=
EXTT3=
EXTT4=
EXTT5=
EXTT6=
EXTT7=
EXTT8=
EXTT9=
PLAYORDER=
